<svg width="20" height="22" viewBox="0 0 20 22" fill="none" xmlns="http://www.w3.org/2000/svg">
<path d="M9.80248 5.27387V8.65772" stroke="#ADA7A7" stroke-width="1.5" stroke-miterlimit="10" stroke-linecap="round"/>
<path d="M9.82369 0.762128C6.08418 0.762128 3.05599 3.79032 3.05599 7.52983V9.66379C3.05599 10.3548 2.77146 11.3913 2.4158 11.9807L1.12527 14.1349C0.332652 15.4661 0.881384 16.9497 2.34467 17.4375C7.20197 19.0532 12.4556 19.0532 17.3129 17.4375C18.6847 16.9802 19.2741 15.3747 18.5323 14.1349L17.2417 11.9807C16.8861 11.3913 16.6015 10.3446 16.6015 9.66379V7.52983C16.5914 3.81064 13.5429 0.762128 9.82369 0.762128Z" stroke="#ADA7A7" stroke-width="1.5" stroke-miterlimit="10" stroke-linecap="round"/>
<path d="M13.1862 17.8539C13.1862 19.7135 11.662 21.2378 9.8024 21.2378C8.87768 21.2378 8.0241 20.8516 7.41439 20.2419C6.80469 19.6322 6.41855 18.7787 6.41855 17.8539" stroke="#ADA7A7" stroke-width="1.5" stroke-miterlimit="10"/>
</svg>
