<svg width="363" height="189" viewBox="0 0 363 189" fill="none" xmlns="http://www.w3.org/2000/svg">
<path fill-rule="evenodd" clip-rule="evenodd" d="M279.29 168.649C281.092 161.341 282.047 153.7 282.047 145.836C282.047 93.3791 239.522 50.8541 187.065 50.8541C134.608 50.8541 92.0828 93.3791 92.0828 145.836C92.0828 153.7 93.0385 161.341 94.8401 168.649H279.29Z" fill="#F5AB7C"/>
<circle cx="152.565" cy="110.478" r="10.5217" fill="#353434"/>
<circle cx="235.83" cy="110.598" r="10.5217" fill="#353434"/>
<rect x="167.898" y="96.8864" width="31.5652" height="8.76811" fill="#353434"/>
<path d="M148.212 148.864C150.778 159.493 157.462 168.668 166.792 174.37C176.123 180.071 187.336 181.833 197.966 179.267C208.595 176.701 217.77 170.017 223.472 160.687C229.173 151.356 230.935 140.143 228.369 129.513L188.291 139.189L148.212 148.864Z" fill="#353434"/>
<ellipse cx="7.8913" cy="162.21" rx="7.8913" ry="16.6594" fill="#1E1E1E"/>
<ellipse cx="21.9205" cy="162.21" rx="7.8913" ry="16.6594" fill="#1E1E1E"/>
<ellipse cx="35.9477" cy="162.21" rx="7.8913" ry="16.6594" fill="#1E1E1E"/>
<ellipse cx="327.053" cy="162.21" rx="7.8913" ry="16.6594" fill="#1E1E1E"/>
<ellipse cx="341.082" cy="162.21" rx="7.8913" ry="16.6594" fill="#1E1E1E"/>
<ellipse cx="355.109" cy="162.21" rx="7.8913" ry="16.6594" fill="#1E1E1E"/>
<path d="M170.659 16.7023C166.527 22.7969 164.471 30.0608 164.793 37.4166C165.115 44.7724 167.8 51.8283 172.449 57.538L176.28 54.4185C172.302 49.5326 170.005 43.4947 169.729 37.2002C169.453 30.9056 171.213 24.6898 174.748 19.4745L170.659 16.7023Z" fill="#353434"/>
<circle cx="223.715" cy="100.076" r="25.5183" stroke="#353434" stroke-width="3.18416"/>
<circle cx="142.382" cy="100.076" r="25.5183" stroke="#353434" stroke-width="3.18416"/>
</svg>
