<svg width="45" height="53" viewBox="0 0 45 53" fill="none" xmlns="http://www.w3.org/2000/svg">
<path d="M44.9993 30.3179C44.9993 42.6335 34.9259 52.6172 22.4996 52.6172C10.0734 52.6172 0 42.6335 0 30.3179C0 18.0023 10.0734 8.01849 22.4996 8.01849C34.9259 8.01849 44.9993 18.0023 44.9993 30.3179Z" fill="#F5AB7C"/>
<ellipse cx="14.3278" cy="22.0155" rx="2.49241" ry="2.47023" fill="#353434"/>
<ellipse cx="34.0509" cy="22.0439" rx="2.49241" ry="2.47023" fill="#353434"/>
<rect x="17.9585" y="18.8254" width="7.47725" height="2.05852" fill="#353434"/>
<path d="M13.2954 31.0285C13.9033 33.524 15.4865 35.678 17.6968 37.0166C19.907 38.3552 22.5633 38.7688 25.0812 38.1663C27.5991 37.5639 29.7725 35.9948 31.1231 33.8042C32.4737 31.6136 32.891 28.981 32.2831 26.4855L22.7893 28.757L13.2954 31.0285Z" fill="#353434"/>
<path d="M18.6125 7.69819e-05C17.6338 1.43092 17.1466 3.13629 17.223 4.86324C17.2994 6.59019 17.9353 8.24675 19.0366 9.58723L19.9441 8.85485C19.0018 7.70778 18.4576 6.29023 18.3922 4.81244C18.3268 3.33465 18.7438 1.87533 19.5812 0.650922L18.6125 7.69819e-05Z" fill="#353434"/>
<path d="M37.2281 19.5743C37.2281 22.8795 34.5236 25.5647 31.1805 25.5647C27.8373 25.5647 25.1329 22.8795 25.1329 19.5743C25.1329 16.269 27.8373 13.5838 31.1805 13.5838C34.5236 13.5838 37.2281 16.269 37.2281 19.5743Z" stroke="#353434" stroke-width="0.747599"/>
<path d="M17.9628 19.5743C17.9628 22.8795 15.2583 25.5647 11.9152 25.5647C8.57203 25.5647 5.8676 22.8795 5.8676 19.5743C5.8676 16.269 8.57203 13.5838 11.9152 13.5838C15.2583 13.5838 17.9628 16.269 17.9628 19.5743Z" stroke="#353434" stroke-width="0.747599"/>
</svg>
