<svg width="27" height="27" viewBox="0 0 27 27" fill="none" xmlns="http://www.w3.org/2000/svg">
<path d="M15.0342 10.315V15.5122H17.9676C18.6687 15.5122 19.0841 14.9317 19.2332 14.2466L19.8133 11.5807C19.9623 10.8955 19.2488 10.315 18.5476 10.315H15.0342Z" fill="#F47D31"/>
<path d="M8.43505 10.315C7.7339 10.315 7.16943 10.8795 7.16943 11.5807V14.2466C7.16943 14.9478 7.7339 15.5122 8.43505 15.5122H10.9301V10.315H8.43505Z" fill="#F47D31"/>
<path d="M10.3345 4.77531V24.9037C10.3345 25.6049 10.899 26.1693 11.6001 26.1693H14.2661C14.9673 26.1693 15.5317 25.6049 15.5317 24.9037V8.59565C15.5317 6.70079 15.9585 6.04093 17.803 6.04093H18.3438C19.0449 6.04093 19.6094 5.47646 19.6094 4.77531V2.10935C19.6094 1.40819 19.0449 0.843727 18.3438 0.843727H14.2661C11.5832 0.843727 10.3345 2.4817 10.3345 4.77531Z" fill="#F47D31"/>
</svg>
