<svg width="27" height="27" viewBox="0 0 27 27" fill="none" xmlns="http://www.w3.org/2000/svg">
<path d="M6.45276 1.89801C3.94785 1.89801 1.89826 3.9476 1.89826 6.45251V20.5478C1.89826 23.0527 3.94785 25.1023 6.45276 25.1023H20.548C23.053 25.1023 25.1025 23.0527 25.1025 20.5478V6.45251C25.1025 3.9476 23.053 1.89801 20.548 1.89801H6.45276ZM6.45276 4.0082H20.548C21.9208 4.0082 22.9928 5.0797 22.9928 6.45251V20.5478C22.9928 21.9206 21.9208 22.9925 20.548 22.9925H6.45276C5.07995 22.9925 4.00845 21.9206 4.00845 20.5478V6.45251C4.00845 5.0797 5.07995 4.0082 6.45276 4.0082ZM20.3841 6.24281C20.1438 6.24094 19.9101 6.32117 19.7216 6.47023C19.6129 6.55614 19.5223 6.66261 19.4548 6.78356C19.3873 6.90451 19.3443 7.03757 19.3282 7.17514C19.3122 7.31271 19.3234 7.4521 19.3612 7.58535C19.399 7.7186 19.4626 7.84309 19.5486 7.95173C19.6345 8.06037 19.7409 8.15102 19.8619 8.21852C19.9828 8.28601 20.1159 8.32901 20.2535 8.34508C20.391 8.36115 20.5304 8.34996 20.6637 8.31216C20.7969 8.27436 20.9214 8.21068 21.0301 8.12476C21.1387 8.03885 21.2294 7.93238 21.2968 7.81143C21.3643 7.69048 21.4073 7.55742 21.4234 7.41985C21.4395 7.28228 21.4283 7.14289 21.3905 7.00964C21.3527 6.8764 21.289 6.7519 21.2031 6.64326C21.1052 6.5195 20.9808 6.41927 20.8391 6.34997C20.6973 6.28066 20.5418 6.24405 20.3841 6.24281ZM13.4475 7.11746C9.87642 7.11746 6.95909 10.0352 6.95909 13.6062C6.95909 17.1773 9.87642 20.0946 13.4475 20.0946C17.0185 20.0946 19.9358 17.1773 19.9358 13.6062C19.9358 10.0352 17.0185 7.11746 13.4475 7.11746ZM13.4475 9.226C15.8785 9.226 17.826 11.1752 17.826 13.6062C17.826 16.0373 15.8785 17.9848 13.4475 17.9848C11.0164 17.9848 9.06887 16.0373 9.06887 13.6062C9.06887 11.1752 11.0164 9.226 13.4475 9.226Z" fill="#F47D31"/>
</svg>
