<svg width="27" height="27" viewBox="0 0 27 27" fill="none" xmlns="http://www.w3.org/2000/svg">
<g clip-path="url(#clip0_1017_877)">
<path d="M26.9952 5.12739C26.0021 5.56867 24.9356 5.86651 23.8142 5.99898C24.9575 5.31386 25.8358 4.2288 26.2501 2.93618C25.1794 3.56983 23.9948 4.03221 22.7334 4.27942C21.7226 3.20365 20.2831 2.53118 18.6893 2.53118C15.6307 2.53118 13.1526 5.01011 13.1526 8.06869C13.1526 8.50238 13.2007 8.92594 13.2952 9.33094C8.69259 9.09975 4.61223 6.89504 1.88018 3.54452C1.40431 4.36295 1.13093 5.31386 1.13093 6.32889C1.13093 8.25094 2.10883 9.94519 3.59383 10.9391C2.6868 10.9096 1.83293 10.6615 1.08621 10.2464C1.08537 10.2692 1.08537 10.2937 1.08537 10.3156C1.08537 12.9995 2.99393 15.238 5.5277 15.7468C5.06364 15.8725 4.57426 15.9409 4.06886 15.9409C3.71111 15.9409 3.36517 15.9063 3.02768 15.8421C3.73136 18.0409 5.77745 19.6424 8.19984 19.6879C6.30563 21.1729 3.91783 22.0597 1.32331 22.0597C0.87612 22.0597 0.43484 22.0335 0.00199817 21.9821C2.45224 23.5515 5.36317 24.4686 8.49094 24.4686C18.6767 24.4686 24.2479 16.0303 24.2479 8.71163C24.2479 8.472 24.2412 8.23238 24.231 7.99444C25.3136 7.21398 26.2518 6.23945 26.9952 5.12739Z" fill="#F47D31"/>
</g>
<defs>
<clipPath id="clip0_1017_877">
<rect width="26.3913" height="26.3913" fill="white" transform="scale(1.02306)"/>
</clipPath>
</defs>
</svg>
